<svg viewBox="0 0 13.7338 14.0859" xmlns="http://www.w3.org/2000/svg" xmlns:xlink="http://www.w3.org/1999/xlink" width="13.733765" height="14.085938" fill="none" customFrame="#000000">
	<g id="Group">
		<path id="Vector" d="M6.86907 0C4.00221 0 3.16376 0.00303453 3.00078 0.0169031C2.41245 0.0670747 2.04636 0.16211 1.64752 0.365826C1.34015 0.522415 1.09774 0.70392 0.8585 0.958355C0.422802 1.42236 0.15874 1.99321 0.0631476 2.67178C0.0166751 3.0012 0.00315317 3.06839 0.000407283 4.75104C-0.000646433 5.31192 0.000407283 6.05009 0.000407283 7.04019C0.000407283 9.97898 0.0035736 10.8383 0.0173082 11.0052C0.0648396 11.5925 0.154618 11.962 0.344744 12.3662C0.708094 13.1399 1.40204 13.7207 2.21958 13.9375C2.50266 14.0122 2.8153 14.0534 3.21667 14.0729C3.38673 14.0805 5.12003 14.0859 6.85438 14.0859C8.58874 14.0859 10.3231 14.0838 10.4889 14.0751C10.9537 14.0527 11.2235 14.0155 11.5219 13.9364C12.3447 13.7186 13.026 13.1464 13.3968 12.3619C13.5832 11.9674 13.6777 11.5838 13.7205 11.0272C13.7298 10.9058 13.7337 8.97078 13.7337 7.03836C13.7337 5.1056 13.7295 3.17415 13.7202 3.05278C13.6769 2.48713 13.5823 2.10678 13.3899 1.70475C13.232 1.37566 13.0567 1.12989 12.8021 0.878605C12.3478 0.433449 11.7922 0.162541 11.1302 0.0645832C10.8094 0.0170096 10.7455 0.00292277 9.10408 0L6.86907 0Z" fill="rgb(69.0625,63.7869,61.1491)" fill-rule="nonzero" />
		<path id="Vector" d="M6.86962 1.80859C5.48283 1.80859 5.30879 1.81481 4.76412 1.84021C4.22051 1.86572 3.84945 1.95393 3.52477 2.08335C3.18892 2.21702 2.90403 2.39582 2.62021 2.68682C2.33617 2.97771 2.1617 3.26968 2.03085 3.61378C1.90426 3.94664 1.81809 4.32704 1.79362 4.88396C1.76926 5.44218 1.76288 5.62066 1.76288 7.04196C1.76288 8.46325 1.76905 8.64107 1.79373 9.1993C1.81873 9.75643 1.90479 10.1367 2.03096 10.4695C2.16149 10.8137 2.33595 11.1057 2.61989 11.3965C2.90361 11.6877 3.1885 11.8669 3.52413 12.0006C3.84902 12.13 4.22019 12.2182 4.76369 12.2437C5.30837 12.2691 5.4823 12.2753 6.86898 12.2753C8.25588 12.2753 8.42939 12.2691 8.97406 12.2437C9.51768 12.2182 9.88916 12.13 10.214 12.0006C10.5498 11.8669 10.8343 11.6877 11.118 11.3965C11.402 11.1057 11.5765 10.8137 11.7073 10.4696C11.8329 10.1367 11.919 9.75633 11.9446 9.19941C11.969 8.64119 11.9754 8.46325 11.9754 7.04196C11.9754 5.62066 11.969 5.44229 11.9446 4.88407C11.919 4.32693 11.8329 3.94664 11.7073 3.61389C11.5765 3.26968 11.402 2.9777 11.118 2.68682C10.8339 2.39571 10.5499 2.2169 10.2137 2.08335C9.8882 1.95393 9.51693 1.86572 8.97332 1.84021C8.42864 1.81481 8.25524 1.80859 6.86803 1.80859L6.86962 1.80859ZM6.41154 2.75169C6.5475 2.75147 6.6992 2.75169 6.86962 2.75169C8.23301 2.75169 8.3946 2.75671 8.933 2.78178C9.43087 2.80512 9.70107 2.89037 9.88107 2.962C10.1194 3.05686 10.2893 3.17025 10.4679 3.35342C10.6466 3.53659 10.7572 3.71103 10.85 3.95525C10.9199 4.13951 11.0032 4.41644 11.0258 4.9267C11.0503 5.47838 11.0556 5.6441 11.0556 7.04076C11.0556 8.43741 11.0503 8.60314 11.0258 9.15482C11.0031 9.66507 10.9199 9.942 10.85 10.1263C10.7574 10.3705 10.6466 10.5444 10.4679 10.7274C10.2892 10.9106 10.1195 11.024 9.88107 11.1189C9.70129 11.1908 9.43087 11.2759 8.933 11.2992C8.39471 11.3243 8.23301 11.3297 6.86962 11.3297C5.50613 11.3297 5.34454 11.3243 4.80624 11.2992C4.30838 11.2756 4.03817 11.1904 3.85806 11.1187C3.61977 11.0239 3.44956 10.9105 3.27084 10.7273C3.09212 10.5442 2.98148 10.3702 2.88871 10.1258C2.81882 9.94157 2.73553 9.66463 2.71287 9.15438C2.6884 8.6027 2.6835 8.43698 2.6835 7.03945C2.6835 5.64193 2.6884 5.47707 2.71287 4.92539C2.73563 4.41513 2.81882 4.1382 2.88871 3.95373C2.98126 3.7095 3.09212 3.53506 3.27084 3.35189C3.44956 3.16872 3.61977 3.05534 3.85806 2.96026C4.03806 2.8883 4.30838 2.80326 4.80624 2.77982C5.2773 2.75801 5.45985 2.75147 6.41154 2.75038L6.41154 2.75169ZM6.86962 4.3544C5.42145 4.3544 4.24732 5.55775 4.24732 7.04196C4.24732 8.52616 5.42145 9.72896 6.86962 9.72896C8.31779 9.72896 9.4915 8.52616 9.4915 7.04196C9.4915 5.55775 8.31779 4.3544 6.86962 4.3544ZM6.86962 5.2975C7.80961 5.2975 8.57173 6.07847 8.57173 7.04196C8.57173 8.00533 7.80961 8.78641 6.86962 8.78641C5.92953 8.78641 5.16752 8.00533 5.16752 7.04196C5.16752 6.07847 5.92953 5.2975 6.86962 5.2975Z" fill="rgb(255,255,255)" fill-rule="nonzero" />
		<path id="Vector" d="M6.86803 1.60859C5.91398 1.60861 5.20957 1.61922 4.7548 1.64043L4.75474 1.64043C4.25681 1.6638 3.82214 1.74951 3.45071 1.89757C3.26584 1.97114 3.09243 2.0619 2.93047 2.16985C2.76777 2.27828 2.61662 2.40406 2.47703 2.54717C2.36987 2.65692 2.27266 2.77367 2.18539 2.89745C2.0463 3.09471 1.93248 3.30979 1.84391 3.54269C1.69953 3.92233 1.61616 4.3665 1.59382 4.87518C1.57319 5.34781 1.56288 6.07007 1.56288 7.04196C1.56288 8.0179 1.57323 8.73996 1.59392 9.20813C1.61676 9.7169 1.7001 10.161 1.84395 10.5404C1.93076 10.7693 2.04212 10.9811 2.17803 11.1757C2.26707 11.3033 2.36665 11.4234 2.47676 11.5362C2.61987 11.6831 2.77503 11.8116 2.94223 11.922C3.10071 12.0265 3.27001 12.1146 3.45013 12.1864C3.82176 12.3344 4.25649 12.4201 4.75431 12.4435C5.20945 12.4647 5.91434 12.4753 6.86898 12.4753C7.82356 12.4753 8.52836 12.4647 8.98338 12.4435C9.48156 12.4201 9.91645 12.3344 10.2881 12.1864C10.4632 12.1166 10.6282 12.0313 10.783 11.9303C10.955 11.8182 11.1144 11.6868 11.2612 11.5361C11.3681 11.4266 11.4652 11.3101 11.5523 11.1866C11.6916 10.9892 11.8056 10.7739 11.8943 10.5407C12.0377 10.1603 12.1211 9.71627 12.1443 9.20857C12.1651 8.73612 12.1754 8.01392 12.1754 7.04196C12.1754 6.06971 12.1651 5.34749 12.1444 4.87531C12.1211 4.36723 12.0378 3.92322 11.8945 3.5433C11.8053 3.30864 11.6905 3.0921 11.5501 2.89365C11.4635 2.77124 11.3671 2.65572 11.2611 2.54709C11.1138 2.39612 10.9538 2.26452 10.7813 2.15231C10.6268 2.05183 10.4623 1.96688 10.2876 1.89748C9.91527 1.74947 9.48031 1.66379 8.98269 1.64043C8.52789 1.61922 7.82353 1.60861 6.86962 1.60859L6.86803 1.60859L6.86803 1.60859ZM6.86803 1.80859C5.4827 1.8086 5.30858 1.81482 4.76412 1.84021C4.22051 1.86572 3.84945 1.95393 3.52477 2.08335C3.18892 2.21702 2.90403 2.39582 2.62021 2.68682C2.33617 2.97771 2.1617 3.26968 2.03085 3.61378C1.90426 3.94664 1.81809 4.32704 1.79362 4.88396C1.76926 5.44218 1.76288 5.62066 1.76288 7.04196C1.76288 8.46325 1.76905 8.64107 1.79373 9.1993C1.81873 9.75643 1.90479 10.1367 2.03096 10.4695C2.16149 10.8137 2.33595 11.1057 2.61989 11.3965C2.90361 11.6877 3.1885 11.8669 3.52413 12.0006C3.84902 12.13 4.22019 12.2182 4.76369 12.2437C5.30837 12.2691 5.4823 12.2753 6.86898 12.2753C8.25588 12.2753 8.42939 12.2691 8.97406 12.2437C9.51768 12.2182 9.88916 12.13 10.214 12.0006C10.5498 11.8669 10.8343 11.6877 11.118 11.3965C11.402 11.1057 11.5765 10.8137 11.7073 10.4696C11.8329 10.1367 11.919 9.75633 11.9446 9.19941C11.969 8.64119 11.9754 8.46325 11.9754 7.04196C11.9754 5.62066 11.969 5.44229 11.9446 4.88407C11.919 4.32693 11.8329 3.94664 11.7073 3.61389C11.5765 3.26968 11.402 2.9777 11.118 2.68682C10.8339 2.39571 10.5499 2.2169 10.2137 2.08335C9.8882 1.95393 9.51693 1.86572 8.97332 1.84021C8.42885 1.81482 8.25537 1.8086 6.86962 1.80859L6.86803 1.80859ZM6.61154 2.7516C6.54128 2.75158 6.47471 2.75159 6.41154 2.75169L6.41154 2.75038C6.34077 2.75046 6.27425 2.75057 6.21154 2.75072C5.4311 2.75253 5.24227 2.75963 4.80624 2.77982C4.30838 2.80326 4.03806 2.8883 3.85806 2.96026C3.61977 3.05534 3.44956 3.16872 3.27084 3.35189C3.09212 3.53506 2.98126 3.7095 2.88871 3.95373C2.81882 4.1382 2.73563 4.41513 2.71287 4.92539C2.6884 5.47707 2.6835 5.64193 2.6835 7.03945C2.6835 8.43698 2.6884 8.6027 2.71287 9.15438C2.73553 9.66463 2.81882 9.94157 2.88871 10.1258C2.98148 10.3702 3.09212 10.5442 3.27084 10.7273C3.44956 10.9105 3.61977 11.0239 3.85806 11.1187C4.03817 11.1904 4.30838 11.2756 4.80624 11.2992C5.34454 11.3243 5.50613 11.3297 6.86962 11.3297C8.23301 11.3297 8.39471 11.3243 8.933 11.2992C9.43087 11.2759 9.70129 11.1908 9.88107 11.1189C10.1195 11.024 10.2892 10.9106 10.4679 10.7274C10.6466 10.5444 10.7574 10.3705 10.85 10.1263C10.9199 9.942 11.0031 9.66507 11.0258 9.15482C11.0503 8.60314 11.0556 8.43741 11.0556 7.04076C11.0556 5.6441 11.0503 5.47838 11.0258 4.9267C11.0032 4.41644 10.9199 4.13951 10.85 3.95525C10.7572 3.71103 10.6466 3.53659 10.4679 3.35342C10.2893 3.17025 10.1194 3.05686 9.88107 2.962C9.70107 2.89037 9.43087 2.80512 8.933 2.78178C8.3946 2.75671 8.23301 2.75169 6.86962 2.75169C6.81069 2.75169 6.75401 2.75167 6.69943 2.75164C6.66951 2.75163 6.64022 2.75161 6.61154 2.7516ZM6.21082 2.9509C5.64318 2.95325 5.17813 2.96282 4.81565 2.9796C4.46261 2.99622 4.16812 3.0517 3.93218 3.14602C3.82741 3.18782 3.72963 3.23984 3.63886 3.30206C3.5584 3.35721 3.48345 3.42038 3.41399 3.49157C3.35866 3.54827 3.3083 3.60851 3.2629 3.67228C3.18643 3.77969 3.12404 3.89713 3.07574 4.02459C2.98319 4.26887 2.92883 4.5721 2.91267 4.93425C2.89323 5.37266 2.8835 6.07439 2.8835 7.03945C2.8835 8.00508 2.89323 8.7071 2.91267 9.14551C2.92875 9.5076 2.98309 9.81071 3.07569 10.0548C3.12449 10.1834 3.18757 10.3017 3.26492 10.4098C3.30981 10.4725 3.35949 10.5318 3.41399 10.5877C3.48498 10.6604 3.56168 10.7248 3.64409 10.7807C3.73336 10.8413 3.82932 10.892 3.93198 10.9329C4.16923 11.0273 4.46375 11.0828 4.81555 11.0994C5.24935 11.1196 5.93404 11.1297 6.86962 11.1297C7.80525 11.1297 8.48992 11.1196 8.92364 11.0994C9.27687 11.0829 9.57137 11.0274 9.80713 10.933C9.90465 10.8942 9.99618 10.8464 10.0817 10.7896C10.169 10.7317 10.25 10.6644 10.3248 10.5877C10.3832 10.5278 10.4361 10.4641 10.4835 10.3964C10.5566 10.292 10.6164 10.1783 10.663 10.0553C10.7555 9.8114 10.8099 9.50828 10.826 9.14596C10.8458 8.70117 10.8556 7.99944 10.8556 7.04076C10.8556 6.08208 10.8458 5.38035 10.826 4.93557C10.81 4.57348 10.7556 4.27038 10.663 4.02627C10.6126 3.89345 10.547 3.77161 10.4664 3.66076C10.4234 3.60174 10.3762 3.54583 10.3247 3.49305C10.2521 3.4186 10.1736 3.35298 10.0891 3.29617C10.0015 3.23723 9.9075 3.18779 9.80712 3.14783C9.57003 3.05348 9.27556 2.99806 8.92369 2.98156C8.49608 2.96165 7.81138 2.95169 6.86962 2.95169L6.21081 2.95169L6.21082 2.9509ZM4.27014 5.89457C4.12159 6.2456 4.04732 6.62806 4.04732 7.04196C4.04732 7.45595 4.12164 7.83849 4.27027 8.18955C4.40755 8.51378 4.60822 8.81117 4.87228 9.08173C5.15832 9.37481 5.47521 9.59186 5.82293 9.73286C6.14532 9.86359 6.49422 9.92896 6.86962 9.92896C7.2451 9.92896 7.59405 9.86356 7.91647 9.73277C8.26407 9.59176 8.58084 9.37474 8.86677 9.08171C9.13058 8.81136 9.33109 8.5142 9.46832 8.19023C9.61711 7.83898 9.6915 7.45622 9.6915 7.04195C9.6915 6.6278 9.61716 6.24512 9.46847 5.89392C9.33124 5.56978 9.13068 5.27246 8.86679 5.00195C8.58063 4.7086 8.2636 4.4914 7.91569 4.35035C7.59348 4.21972 7.24479 4.1544 6.86962 4.1544C6.49454 4.1544 6.14591 4.21969 5.82374 4.35025C5.47571 4.49129 5.15854 4.70852 4.87226 5.00193C4.60812 5.27264 4.40742 5.57018 4.27014 5.89457ZM4.24732 7.04196C4.24732 5.55775 5.42145 4.3544 6.86962 4.3544C8.31779 4.3544 9.4915 5.55775 9.4915 7.04196C9.4915 8.52616 8.31779 9.72896 6.86962 9.72896C5.42145 9.72896 4.24732 8.52616 4.24732 7.04196ZM8.57173 7.04196C8.57173 6.07847 7.80961 5.2975 6.86962 5.2975C5.92953 5.2975 5.16752 6.07847 5.16752 7.04196C5.16752 8.00533 5.92953 8.78641 6.86962 8.78641C7.80961 8.78641 8.57173 8.00533 8.57173 7.04196ZM8.25041 6.42168C8.33129 6.61118 8.37173 6.81794 8.37173 7.04196C8.37173 7.26586 8.33133 7.47252 8.25052 7.66195C8.17707 7.83413 8.07024 7.99207 7.93002 8.13578C7.77654 8.29308 7.60652 8.40919 7.41996 8.48413C7.25021 8.55232 7.06676 8.58641 6.86962 8.58641C6.67238 8.58641 6.48885 8.55229 6.31903 8.48405C6.13255 8.40911 5.9626 8.29302 5.80919 8.13578C5.66904 7.99214 5.56224 7.83426 5.4888 7.66216C5.40795 7.47267 5.36752 7.26594 5.36752 7.04196C5.36752 6.81786 5.40798 6.61104 5.4889 6.42149C5.56233 6.24947 5.6691 6.09167 5.80918 5.9481C5.96254 5.79092 6.13243 5.67486 6.31885 5.59993C6.48872 5.53164 6.67231 5.4975 6.86962 5.4975C7.06683 5.4975 7.25033 5.53161 7.42013 5.59984C7.60663 5.67477 7.7766 5.79086 7.93003 5.9481C8.07017 6.09173 8.17697 6.24959 8.25041 6.42168Z" fill="rgb(255,255,255)" fill-rule="evenodd" />
	</g>
</svg>
