<svg width="14" height="14" viewBox="0 0 14 14" fill="none" xmlns="http://www.w3.org/2000/svg">
<mask id="mask0_100_1043" style="mask-type:luminance" maskUnits="userSpaceOnUse" x="0" y="0" width="14" height="14">
<path d="M14 0H0V14H14V0Z" fill="white"/>
</mask>
<g mask="url(#mask0_100_1043)">
<path d="M6.71273 14H7.29567C10.4602 14 12.0428 14 13.0256 13.0172C14.0084 12.0344 14 10.4524 14 7.2957V6.70433C14 3.54815 14 1.9656 13.0256 0.982803C12.0512 2.81632e-06 10.4602 0 7.29567 0H6.71273C3.54761 0 1.9656 2.81632e-06 0.9828 0.982803C-6.25849e-07 1.9656 0 3.54703 0 6.70433V7.2957C0 10.4524 -6.25849e-07 12.0344 0.9828 13.0172C1.9656 14 3.54761 14 6.71273 14Z" fill="#45403D"/>
<path d="M7.51261 10.094C4.35589 10.094 2.44014 7.90386 2.36566 4.2644H3.96446C4.01431 6.93786 5.23061 8.0724 6.16304 8.30368V4.2644H7.69574V6.57104C8.5951 6.47137 9.53592 5.42192 9.85286 4.2644H11.3598C11.1185 5.68849 10.0942 6.73792 9.36958 7.1708C10.0942 7.5208 11.2601 8.43695 11.7098 10.094H10.0528C9.70279 8.98631 8.84486 8.1284 7.69574 8.01192V10.094H7.51261Z" fill="white"/>
</g>
</svg>
